# 3ds Max Wavefront OBJ Exporter v0.97b - (c)2007 guruware
# File Created: 02.04.2017 23:02:18

mtllib cone.mtl

#
# object Pyramid001
#

v  -0.9196 6.9532 -0.9584
v  0.1512 3.1432 -0.3741
v  -1.0699 4.1432 1.8851
v  1.2213 6.0243 2.2909
v  2.4424 5.0243 0.0317
v  0.6863 4.5837 0.9584
# 6 vertices

vn -0.8881 -0.3027 -0.3460
vn -0.5845 0.5923 0.5545
vn 0.5167 0.8506 -0.0972
vn 0.2383 -0.0814 -0.9678
vn 0.4662 -0.6878 0.5564
# 5 vertex normals

vt 0.5000 1.0000 0.0000
vt 0.0000 0.0000 0.0000
vt 1.0000 0.0000 0.0000
vt 0.0395 0.0000 0.0000
vt 1.0395 0.0000 0.0000
vt 0.0000 1.0000 0.0000
vt 0.5000 0.5000 0.0000
vt 1.0000 1.0000 0.0000
# 8 texture coords

g Pyramid001
usemtl Material__25
s 4
f 1/1/1 2/2/1 3/3/1 
s 2
f 1/1/2 3/4/2 4/5/2 
s 16
f 1/1/3 4/2/3 5/3/3 
s 32
f 1/1/4 5/4/4 2/5/4 
s 8
f 2/6/5 6/7/5 3/8/5 
f 3/8/5 6/7/5 4/3/5 
f 4/3/5 6/7/5 5/2/5 
f 5/2/5 6/7/5 2/6/5 
# 8 faces

