# 3ds Max Wavefront OBJ Exporter v0.97b - (c)2007 guruware
# File Created: 02.04.2017 21:43:44

mtllib cube.mtl

#
# object Box002
#

v  -0.2353 -1.5711 -0.6185
v  1.4859 -0.8356 -0.0089
v  0.6051 -0.1002 1.5906
v  -1.1161 -0.8356 0.9810
v  -0.6051 0.1002 -1.5906
v  -1.4859 0.8356 0.0089
v  0.2353 1.5711 0.6185
v  1.1161 0.8356 -0.9810
# 8 vertices

vn 0.1879 -0.8490 0.4938
vn -0.1879 0.8490 -0.4938
vn -0.8744 -0.3736 -0.3097
vn -0.4474 0.3736 0.8125
vn 0.8744 0.3736 0.3097
vn 0.4474 -0.3736 -0.8125
# 6 vertex normals

vt 1.0000 0.0000 0.0000
vt 1.0000 1.0000 0.0000
vt 0.0000 1.0000 0.0000
vt 0.0000 0.0000 0.0000
# 4 texture coords

g Box002
usemtl Material__24
s 2
f 1/1/1 2/2/1 3/3/1 
f 3/3/1 4/4/1 1/1/1 
usemtl Material__26
s 4
f 5/4/2 6/1/2 7/2/2 
f 7/2/2 8/3/2 5/4/2 
usemtl Material__24
s 8
f 1/4/3 4/1/3 6/2/3 
f 6/2/3 5/3/3 1/4/3 
s 16
f 4/4/4 3/1/4 7/2/4 
f 7/2/4 6/3/4 4/4/4 
s 32
f 3/4/5 2/1/5 8/2/5 
f 8/2/5 7/3/5 3/4/5 
s 64
f 2/4/6 1/1/6 5/2/6 
f 5/2/6 8/3/6 2/4/6 
# 12 faces

